PathFileType	4	(X/Y/Z)	C:\Users\WrightLab\Desktop\Jo\P1_boxCal3.trc
DataRate	CameraRate	NumFrames	NumMarkers	Units	OrigDataRate	OrigDataStartFrame	OrigNumFrames
100.00	100.00	       11	19	mm	100.00	361	       960
Frame#	Time	Headset_Front			Headset_Back			Headset_Left			Headset_Right			Left_Shoulder			Right_Shoulder			Sternum			C7			Left Elbow			Right Elbow			Left Wrist			Right Wrist			Left ASIS			Right ASIS			S2			Left Knee			Right Knee			Left Ankle			Right Ankle			
		X1	Y1	Z1	X2	Y2	Z2	X3	Y3	Z3	X4	Y4	Z4	X5	Y5	Z5	X6	Y6	Z6	X7	Y7	Z7	X8	Y8	Z8	X9	Y9	Z9	X10	Y10	Z10	X11	Y11	Z11	X12	Y12	Z12	X13	Y13	Z13	X14	Y14	Z14	X15	Y15	Z15	X16	Y16	Z16	X17	Y17	Z17	X18	Y18	Z18	X19	Y19	Z19	

361	3.600	-655.73749	1384.57874	-1.85205	-717.44177	1497.08752	-283.53702	-586.28369	1428.83875	-194.40129	-782.12201	1422.61633	-79.22406	-530.55328	1261.14038	-266.94440	-891.66681	1256.80505	-171.48558				-728.65906	1262.07739	-334.36288	-453.54169	951.23035	-337.53571	-997.98944	995.67267	-218.86050	-350.15057	770.57825	-287.52310	-1092.70313	780.98926	-142.66934	-598.52179	868.96954	-98.18130	-796.51263	871.61780	-62.95536	-753.79700	882.44128	-387.41928	-607.16040	420.90735	-295.18762	-879.09644	478.05212	-47.77845	-687.07019	77.29548	-405.60562	-868.69427	135.62503	89.93742	
362	3.610	-653.34259	1384.40723	8.01162	-716.74005	1495.10168	-273.78650	-585.30597	1428.00317	-185.61464	-780.29156	1421.04724	-68.63789	-529.75110	1259.86584	-258.73300	-890.65521	1255.65198	-160.87659	-695.93475	1149.77246	-80.34531	-728.49506	1260.99280	-324.38959	-453.37259	949.93512	-330.38031	-997.33765	994.01880	-208.78822	-348.83246	769.63074	-283.27765	-1093.86951	780.70764	-135.10966	-595.72241	867.01129	-88.12658	-794.24213	869.17328	-53.70903	-754.21698	881.09216	-376.84521	-607.34833	420.13913	-289.98776	-875.69427	476.44412	-35.40568	-687.43561	78.43340	-406.13699	-862.14050	136.19263	102.41138	
363	3.620	-651.90167	1382.20313	18.71287	-715.76074	1493.34656	-263.42297	-584.35663	1426.54114	-176.35155	-779.80786	1420.02441	-58.95264	-528.99072	1258.51782	-249.71205	-889.36572	1253.77368	-149.70468	-695.26459	1147.62073	-71.45327	-727.32660	1258.79187	-313.24506	-453.29376	948.79712	-323.06732	-996.81677	993.19592	-199.24091	-347.86172	768.17346	-278.89368	-1095.24719	779.80219	-126.27352	-593.98584	865.46686	-79.74571	-791.44360	867.46741	-41.93168	-754.10767	879.06891	-367.10910	-607.68292	420.32843	-283.42923	-871.37189	476.55704	-22.76272	-687.56964	79.82489	-406.06689	-854.73340	133.79385	114.04968	
364	3.630	-650.85229	1381.36780	27.71735	-715.20422	1491.70862	-253.31195	-582.98798	1424.99866	-166.28206	-778.84161	1418.37427	-48.55544	-528.60461	1256.55212	-239.81221	-888.20581	1252.17603	-138.39240	-692.96161	1147.96423	-59.42044	-727.21503	1257.23767	-303.20120	-452.92969	947.78033	-316.43271	-996.27661	991.51880	-188.63589	-347.39185	767.22870	-274.74747	-1096.59888	779.61469	-118.39664	-591.94629	863.56281	-69.24112	-788.95923	865.50867	-30.67067	-754.38269	877.51050	-356.75684	-607.66705	420.30237	-277.43820	-867.07300	475.32910	-10.05699	-687.47052	80.38618	-405.76642	-848.95123	131.06665	125.16593	
365	3.640	-648.91425	1379.89600	37.62648	-714.79962	1490.39221	-243.49207	-581.95038	1422.95862	-155.30338	-776.70892	1416.54919	-37.77169	-527.88843	1255.25635	-230.30186	-887.14648	1250.50964	-127.50061	-690.74243	1144.39893	-50.40062	-727.06842	1256.16528	-293.15314	-452.81448	946.68536	-308.93478	-996.03180	990.23236	-178.48430	-347.31693	766.04437	-269.86716	-1097.15356	778.96655	-109.95006	-590.58887	861.76251	-59.61877	-786.78113	864.17438	-18.89575	-753.94061	875.93396	-344.99896	-607.15723	420.04926	-272.15088	-862.55499	475.18625	4.22213	-687.12292	82.95490	-404.72290	-843.82593	127.04144	133.98616	
366	3.650	-647.37622	1379.19446	47.89001	-713.73401	1488.06653	-233.11780	-581.18890	1422.14087	-146.08939	-775.36426	1415.89429	-26.95701	-527.15131	1253.79065	-221.38605	-886.35742	1248.98218	-115.74555	-689.52777	1142.57971	-40.38240	-726.80902	1254.69128	-282.50174	-453.56812	945.47943	-300.84500	-995.31982	989.52631	-168.96437	-347.44772	764.95245	-265.50342	-1097.54956	777.63080	-100.50378	-587.39032	860.02869	-50.18592	-784.15131	862.43402	-8.38590	-753.40509	873.77112	-335.12549	-606.26678	419.58823	-264.19296	-857.98505	474.75217	17.47334	-686.63037	85.33848	-405.19650	-839.01715	122.26127	142.35858	
367	3.660	-645.08063	1377.10852	57.98719	-713.27728	1487.40796	-222.64841	-580.48138	1420.30029	-135.59662	-773.27362	1414.25940	-15.81365	-526.83984	1252.79663	-211.97884	-885.49023	1247.84717	-103.97481	-687.12067	1142.16956	-27.57168	-726.43835	1253.07080	-271.51102	-454.00616	944.50433	-293.37067	-994.77673	987.94257	-158.10776	-347.58432	763.56860	-260.28873	-1097.10803	776.91010	-91.61192	-584.78296	859.45551	-40.83147	-781.33917	860.94543	3.64494	-753.18097	872.81897	-323.78564	-606.10327	418.86594	-257.25089	-852.90912	473.64560	30.96328	-685.94031	87.70489	-404.15976	-833.98108	116.67657	147.46399	
368	3.670	-643.69092	1375.91589	68.86999	-712.39954	1486.32446	-212.27747	-579.31018	1419.20667	-125.85098	-772.50299	1413.65601	-6.00724	-526.45648	1251.60059	-202.00435	-884.57281	1246.26575	-92.80855	-686.42566	1140.15393	-18.21289	-726.48962	1252.31152	-261.11743	-455.31235	943.25586	-285.06058	-994.15942	987.54413	-148.43423	-348.44385	762.59064	-255.51569	-1097.95667	776.34277	-82.82317	-582.18805	857.50458	-31.11580	-779.22168	860.46716	14.50713	-752.84406	871.44519	-313.30417	-605.24103	418.99173	-250.44119	-848.14093	471.61188	44.36648	-686.11047	89.68951	-402.26141	-829.32172	111.69646	152.42604	
369	3.680	-642.75696	1375.25818	79.37264	-711.59967	1484.98987	-201.83711	-578.05432	1417.78345	-116.05785	-771.03027	1411.96008	5.02969	-526.12262	1250.28979	-192.33704	-884.00452	1245.39404	-81.57304				-726.39490	1250.34424	-250.00571	-456.31616	942.45404	-277.15207	-993.41589	985.83118	-137.51045	-349.72269	761.51343	-250.53224	-1098.29272	775.95966	-74.29355	-580.15472	856.84418	-19.74727	-776.56537	859.09955	25.86098	-751.71863	869.79938	-301.05405	-604.37994	417.59930	-241.25304	-843.97760	470.46344	57.65649	-685.75128	93.12262	-401.08109	-825.42920	106.94663	157.36075	
370	3.690	-641.59113	1372.37000	84.39310	-710.96460	1483.78320	-190.76935	-577.51306	1416.84363	-105.64838	-769.76019	1411.02246	15.71848	-525.52374	1249.58118	-183.45193	-882.81677	1244.17004	-69.46399				-726.75385	1249.53101	-240.23129	-457.27182	941.78210	-269.83319	-993.02234	985.18683	-126.73879	-351.32266	760.99023	-246.77896	-1097.04358	774.30078	-64.63367	-577.24585	855.81323	-10.47896	-773.61523	858.35034	38.75097	-751.18451	867.90070	-289.02042	-602.62988	417.14484	-232.60847	-839.40656	469.05096	70.04442	-684.95331	95.78166	-399.45084	-821.28351	103.59818	163.23619	
371	3.700	-638.69427	1373.13037	99.56540	-709.29663	1482.76953	-179.37550	-576.16467	1415.65771	-94.64691	-767.60468	1409.62708	27.22903	-525.10944	1248.62537	-173.79422	-881.97229	1243.61267	-58.39781	-681.58875	1138.72363	17.62012	-726.51434	1247.91565	-228.83867	-459.02689	941.02637	-261.35370	-992.48303	984.52777	-116.36801	-353.10580	759.85736	-241.00726	-1096.83130	773.50909	-55.19012	-574.10046	856.15033	-0.29483	-770.80334	858.46588	51.24402	-750.86902	866.90112	-277.15393	-601.57391	416.90002	-223.62117	-834.03522	466.29971	84.21444	-683.96057	98.97568	-396.93304	-817.57605	100.40671	170.14252	
